<?xml version="1.0" encoding="UTF-8"?><svg width="94" height="20" xmlns="http://www.w3.org/2000/svg" aria-label="HelloGitHub" role="img"><title>HelloGitHub</title><defs><linearGradient y2="100%" x2="0" id="s"><stop stop-opacity="0.1" stop-color="#bbb" offset="0"/><stop stop-opacity="0.1" offset="1"/></linearGradient><clipPath id="r"><rect fill="#fff" rx="3" height="20" width="94"/></clipPath></defs><g clip-path="url(#r)"><rect fill="#555" height="20" width="19"/><rect fill="#007ec6" height="20" width="75" x="19"/><rect fill="url(#s)" height="20" width="94"/></g><g font-size="110" text-rendering="geometricPrecision" font-family="Verdana,Geneva,DejaVu Sans,sans-serif" text-anchor="middle" fill="#fff"><text textLength="650" transform="scale(.1)" fill-opacity="0.3" fill="#010101" y="150" x="555" aria-hidden="true">HelloGitHub</text><text textLength="650" transform="scale(.1)" y="140" x="555">HelloGitHub</text></g><polygon fill="#fff" points="8.42,14.05 13.04,4.20 12.19,3.84 7.97,13.00 8.42,14.05"/><polygon fill="#fff" points="7.01,7.19 3.97,13.58 4.82,13.90 7.47,8.29 7.01,7.19"/><path fill="#fff" d="M15.30,10.12c-0.28,2.93 -2.99,5.19 -6.20,5.19c-3.44,0 -6.25,-2.57 -6.25,-5.76s2.82,-5.76 6.25,-5.76c2.82,0 5.18,1.73 5.97,4.08l0.51,-1.05c-1.13,-2.25 -3.61,-3.82 -6.48,-3.82c-3.94,0 -7.10,2.93 -7.10,6.60s3.21,6.60 7.10,6.60s6.76,-2.67 7.10,-6.02l-0.90,-0.05z"/><polygon fill="#fff" points="10.23,10.12 5.66,10.12 5.66,10.96 9.83,10.96 10.23,10.12"/><polygon fill="#fff" points="11.18,10.12 10.79,10.96 15.92,10.96 15.92,10.12 11.18,10.12"/></svg>